<svg version="1.2" xmlns="http://www.w3.org/2000/svg" viewBox="0 0 22 22" width="22" height="22"><style>.a{fill:#adc3c7}</style><path fill-rule="evenodd" class="a" d="m22 10.8c0 3-2.3 5.5-5.2 5.7l0.5-2c1.7-0.4 2.9-1.9 2.9-3.7 0-2.1-1.7-3.7-4.1-3.9h-0.7l-0.1-0.7c-0.5-2.5-2.6-4.4-5.1-4.4-1.5 0-2.9 0.6-3.9 1.6-0.9 1-1.3 2.5-1.2 4.1v0.8l-0.7 0.2c-1.6 0.4-2.6 1.6-2.6 3.1 0 1.3 0.8 2.4 2 2.9l-0.5 1.8c-1.9-0.7-3.3-2.5-3.3-4.7 0-2.1 1.2-3.9 3.2-4.7 0-1.8 0.7-3.5 1.8-4.7 1.3-1.4 3.1-2.2 5.2-2.2 3.2 0 5.9 2.1 6.7 5.2 3 0.5 5.1 2.7 5.1 5.6zm-15 0.9c-0.3 0-1.5 1.2-1.7 1.9-0.2 0.7 0.2 1.2 0.8 1.4 0.6 0.1 1.2-0.2 1.4-0.8 0.2-0.7-0.2-2.4-0.5-2.5zm-1.1 4.4c-0.3-0.1-1.5 1.2-1.7 1.9-0.2 0.6 0.2 1.2 0.8 1.4 0.6 0.1 1.2-0.2 1.4-0.8 0.2-0.7-0.2-2.4-0.5-2.5zm5.9-5.8c-0.4-0.1-1.5 1.1-1.7 1.8-0.2 0.7 0.2 1.2 0.8 1.4 0.6 0.2 1.2-0.1 1.4-0.8 0.2-0.7-0.2-2.3-0.5-2.4zm-1.1 4.4c-0.4-0.1-1.5 1.1-1.7 1.8-0.2 0.7 0.2 1.2 0.8 1.4 0.6 0.2 1.2-0.1 1.4-0.8 0.1-0.7-0.2-2.3-0.5-2.4zm-1.1 4c-0.4-0.1-1.5 1.1-1.7 1.8-0.2 0.7 0.2 1.3 0.8 1.4 0.6 0.2 1.2-0.1 1.4-0.8 0.2-0.7-0.2-2.3-0.5-2.4zm5.5-5.9c-0.4 0-1.5 1.2-1.7 1.9-0.2 0.6 0.2 1.2 0.8 1.4 0.6 0.1 1.2-0.2 1.4-0.8 0.2-0.7-0.2-2.4-0.5-2.5zm-1.1 4.4c-0.4-0.1-1.5 1.2-1.7 1.9-0.2 0.6 0.2 1.2 0.8 1.4 0.6 0.1 1.2-0.2 1.4-0.8 0.2-0.7-0.2-2.4-0.5-2.5z"/></svg>