<svg version="1.2" xmlns="http://www.w3.org/2000/svg" viewBox="0 0 30 30" width="30" height="30"><style>.a{fill:#8b7613}</style><path fill-rule="evenodd" class="a" d="m14 0h2v6h-2zm10 14h6v2h-6zm-10 10h2v6h-2zm-14-10h6v2h-6zm24.9-10.3l1.4 1.4-4.2 4.2-1.4-1.4zm-2.9 17l4.3 4.2-1.4 1.5-4.3-4.3zm-14.1 0l1.4 1.4-4.3 4.3-1.4-1.4zm-2.8-17l4.2 4.2-1.4 1.4-4.2-4.2zm9.9 5.3c3.3 0 6 2.7 6 6 0 3.3-2.7 6-6 6-3.3 0-6-2.7-6-6 0-3.3 2.7-6 6-6zm-4 6c0 2.2 1.8 4 4 4 2.2 0 4-1.8 4-4 0-2.2-1.8-4-4-4-2.2 0-4 1.8-4 4z"/></svg>