<svg version="1.2" xmlns="http://www.w3.org/2000/svg" viewBox="0 0 26 26" width="26" height="26"><style>.a{fill:#adc3c7}</style><path fill-rule="evenodd" class="a" d="m12 0h2v5h-2zm9 12h5v2h-5zm-9 9h2v5h-2zm-12-9h5v2h-5zm13-4c2.8 0 5 2.2 5 5 0 2.8-2.2 5-5 5-2.8 0-5-2.2-5-5 0-2.8 2.2-5 5-5zm-3 5c0 1.7 1.3 3 3 3 1.7 0 3-1.3 3-3 0-1.7-1.3-3-3-3-1.7 0-3 1.3-3 3zm11.5-9.9l1.4 1.4-3.5 3.6-1.5-1.5zm-2.1 14.9l3.6 3.5-1.5 1.4-3.5-3.5zm-12.7 0l1.4 1.4-3.5 3.5-1.4-1.4zm-2.2-14.8l3.6 3.5-1.4 1.4-3.6-3.5z"/></svg>