<svg width="63" height="60" viewBox="0 0 63 60" fill="none" xmlns="http://www.w3.org/2000/svg">
<g clip-path="url(#clip0_1_7)">
<path fill-rule="evenodd" clip-rule="evenodd" d="M30 60C46.5685 60 60 46.5685 60 30C60 13.4315 46.5685 0 30 0C13.4315 0 0 13.4315 0 30C0 46.5685 13.4315 60 30 60Z" fill="#FBC52B"/>
<g clip-path="url(#clip1_1_7)">
<path fill-rule="evenodd" clip-rule="evenodd" d="M61.393 14.037L57.647 17.823C57.647 17.823 57.647 17.824 57.646 17.824C57.646 17.825 57.645 17.825 57.645 17.826L31.987 43.755C31.149 44.602 23.412 46.994 21.508 46.994C21.194 46.994 20.736 46.953 20.394 46.609C19.994 46.204 19.541 45.746 21.101 40.444C21.436 39.305 22.579 35.536 23.217 34.892L52.623 5.174C53.373 4.416 54.37 3.999 55.429 3.999C56.489 3.999 57.485 4.417 58.235 5.174L61.393 8.365C62.143 9.122 62.556 10.13 62.556 11.201C62.556 12.273 62.143 13.28 61.393 14.037ZM22.04 44.942C23.25 44.77 25.454 44.141 27.34 43.526L23.437 39.581C22.824 41.53 22.209 43.797 22.04 44.942ZM24.151 37.467L29.429 42.801C30.011 42.583 30.449 42.399 30.631 42.289L55.541 17.115L49.577 11.088L24.667 36.263C24.54 36.471 24.359 36.906 24.151 37.467ZM59.99 9.783L56.832 6.592C56.082 5.834 54.776 5.835 54.026 6.592L50.98 9.67L56.944 15.697L59.99 12.619C60.365 12.24 60.572 11.737 60.572 11.201C60.572 10.666 60.365 10.162 59.99 9.783ZM58.375 19.67C58.763 19.278 59.39 19.278 59.778 19.67C60.166 20.062 60.166 20.696 59.778 21.088L51.071 29.887C50.877 30.083 50.623 30.181 50.369 30.181C50.115 30.181 49.861 30.083 49.668 29.887C49.28 29.495 49.28 28.861 49.668 28.469L58.375 19.67Z" fill="#8D76BE"/>
</g>
</g>
<defs>
<clipPath id="clip0_1_7">
<rect width="63" height="60" fill="white"/>
</clipPath>
<clipPath id="clip1_1_7">
<rect width="43" height="44" fill="white" transform="translate(20 3)"/>
</clipPath>
</defs>
</svg>
