<svg width="79" height="60" viewBox="0 0 79 60" fill="none" xmlns="http://www.w3.org/2000/svg">
<g clip-path="url(#clip0_1_19)">
<path fill-rule="evenodd" clip-rule="evenodd" d="M30 60C46.5685 60 60 46.5685 60 30C60 13.4315 46.5685 0 30 0C13.4315 0 0 13.4315 0 30C0 46.5685 13.4315 60 30 60Z" fill="#FBC52B"/>
<g clip-path="url(#clip1_1_19)">
<path fill-rule="evenodd" clip-rule="evenodd" d="M73.307 47.984H26.732C24.129 47.984 22.012 45.84 22.012 43.206V18.68C22.012 16.045 24.129 13.901 26.732 13.901H49.026V8.001C49.026 7.446 49.47 6.996 50.019 6.996C50.567 6.996 51.012 7.446 51.012 8.001V13.901H73.307C75.909 13.901 78.026 16.045 78.026 18.68V43.206C78.026 45.84 75.909 47.984 73.307 47.984ZM76.039 18.68C76.039 17.154 74.814 15.913 73.307 15.913H26.732C25.225 15.913 23.999 17.154 23.999 18.68V43.206C23.999 44.731 25.225 45.972 26.732 45.972H73.307C74.814 45.972 76.039 44.731 76.039 43.206V18.68ZM67.3 36.852C65.821 36.852 64.624 35.64 64.624 34.143C64.624 32.645 65.821 31.432 67.3 31.432C68.778 31.432 69.977 32.645 69.977 34.143C69.977 35.64 68.778 36.852 67.3 36.852ZM62.832 29.056C61.353 29.056 60.156 27.844 60.156 26.347C60.156 24.85 61.353 23.636 62.832 23.636C64.311 23.636 65.509 24.85 65.509 26.347C65.509 27.844 64.311 29.056 62.832 29.056ZM43.002 31.881H38.451V36.489C38.451 37.045 38.006 37.495 37.458 37.495C36.909 37.495 36.465 37.045 36.465 36.489V31.881H31.913C31.364 31.881 30.919 31.43 30.919 30.875C30.919 30.319 31.364 29.869 31.913 29.869H36.465V25.26C36.465 24.704 36.909 24.254 37.458 24.254C38.006 24.254 38.451 24.704 38.451 25.26V29.869H43.002C43.55 29.869 43.995 30.319 43.995 30.875C43.995 31.43 43.55 31.881 43.002 31.881Z" fill="#8D76BE"/>
</g>
</g>
<defs>
<clipPath id="clip0_1_19">
<rect width="79" height="60" fill="white"/>
</clipPath>
<clipPath id="clip1_1_19">
<rect width="57" height="42" fill="white" transform="translate(22 6)"/>
</clipPath>
</defs>
</svg>
