<svg width="74" height="60" viewBox="0 0 74 60" fill="none" xmlns="http://www.w3.org/2000/svg">
<g clip-path="url(#clip0_1_31)">
<path fill-rule="evenodd" clip-rule="evenodd" d="M30 60C46.5685 60 60 46.5685 60 30C60 13.4315 46.5685 0 30 0C13.4315 0 0 13.4315 0 30C0 46.5685 13.4315 60 30 60Z" fill="#FBC52B"/>
<g clip-path="url(#clip1_1_31)">
<path fill-rule="evenodd" clip-rule="evenodd" d="M61.86 41.448H50.429C49.875 41.448 49.425 40.999 49.425 40.444C49.425 39.888 49.875 39.439 50.429 39.439H61.86C67.633 39.439 71.987 35.266 71.987 29.732C71.987 24.303 67.444 19.887 61.86 19.887C60.962 19.887 60.071 20.101 59.01 20.42C58.597 20.537 58.174 20.558 57.77 20.482C56.846 20.299 56.06 19.637 55.755 18.793C53.862 13.537 48.815 10.006 43.196 10.006C36.08 10.006 30.226 15.569 29.868 22.672C29.831 23.476 29.41 24.23 28.743 24.686C28.092 25.14 27.239 25.267 26.463 25.014L26.105 24.874C25.347 24.643 24.566 24.513 23.854 24.513C19.454 24.513 16.007 27.808 16.007 32.016C16.007 36.248 19.38 39.439 23.854 39.439H35.962C36.517 39.439 36.966 39.888 36.966 40.444C36.966 40.999 36.517 41.448 35.962 41.448H23.854C18.328 41.448 14 37.305 14 32.016C14 26.682 18.328 22.504 23.854 22.504C24.767 22.504 25.747 22.664 26.768 22.98L27.14 23.123C27.263 23.159 27.457 23.135 27.603 23.033C27.763 22.923 27.856 22.758 27.864 22.575C28.275 14.399 35.01 7.997 43.196 7.997C49.659 7.997 55.464 12.061 57.642 18.11C57.708 18.293 57.925 18.465 58.147 18.51C58.238 18.525 58.347 18.52 58.449 18.492C59.496 18.176 60.648 17.878 61.86 17.878C68.55 17.878 73.994 23.196 73.994 29.732C73.994 36.302 68.664 41.448 61.86 41.448ZM42.516 32.1C42.521 32.095 42.522 32.088 42.527 32.083C42.724 31.886 42.982 31.788 43.24 31.789C43.497 31.788 43.755 31.886 43.952 32.083C43.956 32.086 43.955 32.092 43.959 32.096L48.114 36.256C48.506 36.648 48.506 37.284 48.114 37.676C47.918 37.872 47.662 37.971 47.405 37.971C47.148 37.971 46.892 37.872 46.696 37.676L44.246 35.224V50.983C44.246 51.539 43.797 51.988 43.243 51.988C42.689 51.988 42.239 51.539 42.239 50.983V35.218L39.784 37.676C39.588 37.872 39.331 37.971 39.074 37.971C38.818 37.971 38.561 37.872 38.365 37.676C37.973 37.284 37.973 36.648 38.365 36.256L42.516 32.1Z" fill="#8D76BE"/>
</g>
</g>
<defs>
<clipPath id="clip0_1_31">
<rect width="74" height="60" fill="white"/>
</clipPath>
<clipPath id="clip1_1_31">
<rect width="60" height="45" fill="white" transform="translate(14 7)"/>
</clipPath>
</defs>
</svg>
